<svg width="26" height="26" viewBox="0 0 26 26" fill="none" xmlns="http://www.w3.org/2000/svg">
<circle cx="13" cy="13" r="13" fill="#EBEBF5"/>
<path d="M22.3715 9.41397C21.528 9.35934 20.779 10.1008 20.8138 10.9853H20.8113C20.8188 13.1393 19.9728 15.2725 18.5121 16.7891C14.5706 20.9176 7.83974 19.5154 5.70725 14.1252C5.3141 13.1315 5.11006 12.0597 5.11006 10.9827H5.10757C5.10757 10.3193 4.68953 9.69753 4.0575 9.49722C3.32842 9.25008 2.5023 9.68712 2.25098 10.4572C2.10666 10.8708 2.13652 11.4457 2.44258 11.888C2.93776 12.593 3.73651 12.6814 4.33121 12.3432C4.5253 14.2813 5.40617 16.1257 6.75235 17.4707C7.94674 18.6622 9.45217 19.4816 11.0621 19.825C12.8363 20.236 14.588 20.0435 16.1408 19.3958H16.1432C18.5992 18.5581 20.7964 16.9166 22.2595 14.6819C22.909 13.7142 23.4141 12.632 23.7674 11.5081C24.0561 10.5222 23.3743 9.4634 22.3715 9.41397ZM5.01799 10.9879C5.00804 11.5238 4.68704 11.8776 4.30384 11.9894C3.88829 12.1117 3.40058 11.9504 3.15922 11.4275C3.06466 11.209 3.04227 10.967 3.09203 10.7381V10.7355C3.40805 9.55445 4.97818 9.74696 5.01799 10.9879ZM23.0284 11.3182C22.9488 11.5784 22.8393 11.8958 22.7423 12.1481C22.262 13.3864 21.5728 14.518 20.7242 15.4988C20.6347 15.6002 20.4804 15.4832 20.5451 15.3635C21.2318 14.0758 21.625 12.5878 21.6225 10.9879H21.625C21.6076 10.7979 21.6698 10.6106 21.7942 10.4676C22.0654 10.1424 22.593 10.158 22.8642 10.4884C23.0533 10.7069 23.1205 11.0399 23.0284 11.3182Z" fill="#18181C"/>
<path d="M15.9646 7.04138C14.9444 7.04138 14.071 8.04555 13.7027 9.47375C13.6754 9.58041 13.6505 9.68707 13.6281 9.79633C13.6281 9.80153 13.6256 9.80673 13.6256 9.81194C13.5559 10.1839 13.5161 10.5768 13.5161 10.9852C13.5161 13.1652 14.611 14.9316 15.9646 14.9316C17.3183 14.9316 18.4131 13.1652 18.4131 10.9852C18.4131 8.80777 17.3183 7.04138 15.9646 7.04138ZM15.0315 8.8598C14.6782 9.17718 14.5488 9.68446 14.703 10.1423C14.7827 10.3817 14.4194 10.4831 14.3397 10.2464C14.1457 9.66625 14.3198 8.98207 14.7652 8.58145C14.9469 8.42016 15.2156 8.69591 15.0315 8.8598Z" fill="#18181C"/>
<path d="M9.95436 7.04138C8.93415 7.04138 8.06075 8.04555 7.69248 9.47375C7.66511 9.58041 7.64023 9.68707 7.61783 9.79633C7.61783 9.80153 7.61534 9.80673 7.61534 9.81194C7.54567 10.1839 7.50586 10.5768 7.50586 10.9852C7.50586 13.1652 8.60072 14.9316 9.95436 14.9316C11.3055 14.9316 12.4029 13.1652 12.4029 10.9852C12.4029 8.80777 11.308 7.04138 9.95436 7.04138ZM11.0766 10.1423C11.2309 9.68446 11.099 9.17718 10.7456 8.8598C10.5615 8.69331 10.8278 8.41755 11.0119 8.58145C11.4573 8.98207 11.6315 9.66625 11.4374 10.2464C11.3603 10.4857 10.997 10.3817 11.0766 10.1423Z" fill="#18181C"/>
<path d="M23.0288 11.3184C22.9492 11.5785 22.8397 11.8959 22.7427 12.1483C22.2624 13.384 21.5757 14.5156 20.7272 15.4937C20.6376 15.5978 20.4808 15.4807 20.5455 15.3585C21.2298 14.0707 21.623 12.5853 21.6205 10.9854H21.6229C21.6055 10.7955 21.6677 10.6082 21.7922 10.4651C22.0634 10.1399 22.5909 10.1555 22.8621 10.4859C23.0537 10.707 23.1209 11.04 23.0288 11.3184Z" fill="#FF0059"/>
<path d="M15.0281 8.86298C14.6748 9.18036 14.5454 9.68504 14.6997 10.1455C14.7793 10.3848 14.4185 10.4863 14.3388 10.2496C14.1448 9.66943 14.3189 8.98525 14.7643 8.58462C14.946 8.42073 15.2147 8.69648 15.0281 8.86298Z" fill="white"/>
<path d="M11.4394 10.2496C11.3598 10.4863 10.9965 10.3848 11.0786 10.1455C11.2304 9.68764 11.101 9.18036 10.7477 8.86298C10.5635 8.69648 10.8298 8.42073 11.0139 8.58462C11.4568 8.98525 11.6335 9.66943 11.4394 10.2496Z" fill="white"/>
</svg>
